solid ASCII
  facet normal 0.000000e+00 -1.000000e+00 0.000000e+00
    outer loop
      vertex   3.900000e+01 -5.999999e+00 4.000003e-01
      vertex   3.900000e+01 -5.999999e+00 -3.576278e-07
      vertex   1.170000e+02 -5.999999e+00 4.000003e-01
    endloop
  endfacet
  facet normal 0.000000e+00 -1.000000e+00 -0.000000e+00
    outer loop
      vertex   1.170000e+02 -5.999999e+00 4.000003e-01
      vertex   3.900000e+01 -5.999999e+00 -3.576278e-07
      vertex   1.170000e+02 -5.999999e+00 -3.576278e-07
    endloop
  endfacet
  facet normal -0.000000e+00 0.000000e+00 1.000000e+00
    outer loop
      vertex   3.900000e+01 5.999999e+00 4.000003e-01
      vertex   3.900000e+01 -5.999999e+00 4.000003e-01
      vertex   1.170000e+02 5.999999e+00 4.000003e-01
    endloop
  endfacet
  facet normal 0.000000e+00 0.000000e+00 1.000000e+00
    outer loop
      vertex   1.170000e+02 5.999999e+00 4.000003e-01
      vertex   3.900000e+01 -5.999999e+00 4.000003e-01
      vertex   1.170000e+02 -5.999999e+00 4.000003e-01
    endloop
  endfacet
  facet normal 0.000000e+00 1.000000e+00 0.000000e+00
    outer loop
      vertex   3.900000e+01 5.999999e+00 -3.576278e-07
      vertex   3.900000e+01 5.999999e+00 4.000003e-01
      vertex   1.170000e+02 5.999999e+00 -3.576278e-07
    endloop
  endfacet
  facet normal 0.000000e+00 1.000000e+00 -0.000000e+00
    outer loop
      vertex   1.170000e+02 5.999999e+00 -3.576278e-07
      vertex   3.900000e+01 5.999999e+00 4.000003e-01
      vertex   1.170000e+02 5.999999e+00 4.000003e-01
    endloop
  endfacet
  facet normal 0.000000e+00 0.000000e+00 -1.000000e+00
    outer loop
      vertex   3.900000e+01 -5.999999e+00 -3.576278e-07
      vertex   3.900000e+01 5.999999e+00 -3.576278e-07
      vertex   1.170000e+02 -5.999999e+00 -3.576278e-07
    endloop
  endfacet
  facet normal 0.000000e+00 0.000000e+00 -1.000000e+00
    outer loop
      vertex   1.170000e+02 -5.999999e+00 -3.576278e-07
      vertex   3.900000e+01 5.999999e+00 -3.576278e-07
      vertex   1.170000e+02 5.999999e+00 -3.576278e-07
    endloop
  endfacet
  facet normal 1.000000e+00 0.000000e+00 -0.000000e+00
    outer loop
      vertex   1.170000e+02 5.999999e+00 -3.576278e-07
      vertex   1.170000e+02 5.999999e+00 4.000003e-01
      vertex   1.170000e+02 -5.999999e+00 -3.576278e-07
    endloop
  endfacet
  facet normal 1.000000e+00 0.000000e+00 0.000000e+00
    outer loop
      vertex   1.170000e+02 -5.999999e+00 -3.576278e-07
      vertex   1.170000e+02 5.999999e+00 4.000003e-01
      vertex   1.170000e+02 -5.999999e+00 4.000003e-01
    endloop
  endfacet
  facet normal -1.000000e+00 0.000000e+00 0.000000e+00
    outer loop
      vertex   3.900000e+01 5.999999e+00 -3.576278e-07
      vertex   3.900000e+01 -5.999999e+00 -3.576278e-07
      vertex   3.900000e+01 5.999999e+00 4.000003e-01
    endloop
  endfacet
  facet normal -1.000000e+00 -0.000000e+00 0.000000e+00
    outer loop
      vertex   3.900000e+01 5.999999e+00 4.000003e-01
      vertex   3.900000e+01 -5.999999e+00 -3.576278e-07
      vertex   3.900000e+01 -5.999999e+00 4.000003e-01
    endloop
  endfacet
endsolid
