solid ASCII
  facet normal 0.000000e+00 0.000000e+00 -1.000000e+00
    outer loop
      vertex   3.400000e+00 -1.405000e+01 -6.017000e+00
      vertex   3.400000e+00 1.405000e+01 -6.017000e+00
      vertex   3.800000e+00 -1.405000e+01 -6.017000e+00
    endloop
  endfacet
  facet normal 0.000000e+00 0.000000e+00 -1.000000e+00
    outer loop
      vertex   3.800000e+00 -1.405000e+01 -6.017000e+00
      vertex   3.400000e+00 1.405000e+01 -6.017000e+00
      vertex   3.800000e+00 1.405000e+01 -6.017000e+00
    endloop
  endfacet
  facet normal 0.000000e+00 -1.000000e+00 0.000000e+00
    outer loop
      vertex   3.400000e+00 -1.405000e+01 7.500000e+00
      vertex   3.400000e+00 -1.405000e+01 -6.017000e+00
      vertex   3.800000e+00 -1.405000e+01 7.500000e+00
    endloop
  endfacet
  facet normal 0.000000e+00 -1.000000e+00 -0.000000e+00
    outer loop
      vertex   3.800000e+00 -1.405000e+01 7.500000e+00
      vertex   3.400000e+00 -1.405000e+01 -6.017000e+00
      vertex   3.800000e+00 -1.405000e+01 -6.017000e+00
    endloop
  endfacet
  facet normal -0.000000e+00 0.000000e+00 1.000000e+00
    outer loop
      vertex   3.400000e+00 1.405000e+01 7.500000e+00
      vertex   3.400000e+00 -1.405000e+01 7.500000e+00
      vertex   3.800000e+00 1.405000e+01 7.500000e+00
    endloop
  endfacet
  facet normal 0.000000e+00 0.000000e+00 1.000000e+00
    outer loop
      vertex   3.800000e+00 1.405000e+01 7.500000e+00
      vertex   3.400000e+00 -1.405000e+01 7.500000e+00
      vertex   3.800000e+00 -1.405000e+01 7.500000e+00
    endloop
  endfacet
  facet normal 0.000000e+00 1.000000e+00 0.000000e+00
    outer loop
      vertex   3.400000e+00 1.405000e+01 -6.017000e+00
      vertex   3.400000e+00 1.405000e+01 7.500000e+00
      vertex   3.800000e+00 1.405000e+01 -6.017000e+00
    endloop
  endfacet
  facet normal 0.000000e+00 1.000000e+00 -0.000000e+00
    outer loop
      vertex   3.800000e+00 1.405000e+01 -6.017000e+00
      vertex   3.400000e+00 1.405000e+01 7.500000e+00
      vertex   3.800000e+00 1.405000e+01 7.500000e+00
    endloop
  endfacet
  facet normal 1.000000e+00 0.000000e+00 -0.000000e+00
    outer loop
      vertex   3.800000e+00 1.405000e+01 -6.017000e+00
      vertex   3.800000e+00 1.405000e+01 7.500000e+00
      vertex   3.800000e+00 -1.405000e+01 -6.017000e+00
    endloop
  endfacet
  facet normal 1.000000e+00 0.000000e+00 0.000000e+00
    outer loop
      vertex   3.800000e+00 -1.405000e+01 -6.017000e+00
      vertex   3.800000e+00 1.405000e+01 7.500000e+00
      vertex   3.800000e+00 -1.405000e+01 7.500000e+00
    endloop
  endfacet
  facet normal -1.000000e+00 0.000000e+00 0.000000e+00
    outer loop
      vertex   3.400000e+00 1.405000e+01 -6.017000e+00
      vertex   3.400000e+00 -1.405000e+01 -6.017000e+00
      vertex   3.400000e+00 1.405000e+01 7.500000e+00
    endloop
  endfacet
  facet normal -1.000000e+00 -0.000000e+00 0.000000e+00
    outer loop
      vertex   3.400000e+00 1.405000e+01 7.500000e+00
      vertex   3.400000e+00 -1.405000e+01 -6.017000e+00
      vertex   3.400000e+00 -1.405000e+01 7.500000e+00
    endloop
  endfacet
endsolid
